<svg width="1920" height="622" viewBox="0 0 1920 622" fill="none" xmlns="http://www.w3.org/2000/svg">
<path d="M1932 2L1724 50L1655.5 41L1600 77L1538.8 122.085L1513.5 128.5L1485.5 122.085H1407.38L1367.06 136.391L1324.5 145.928L1305 171.939L1259.5 187.112L1212 204.886L1187.5 228L1170.5 229.5L1149.5 230.5L1119.5 267H1093.5H1067.5H1040L1003.65 288.987L945.295 305.894L923.946 300.258H908.29L798.698 349.245L765.489 371.787L718.046 374.388L686.26 383.059L598.017 396.497L473.719 417.306L320 445.484L230.5 457.5L143 493.5L-19 513.5" stroke="#50CE61" stroke-width="4" stroke-linecap="round"/>
<path d="M598.017 396.497L473.719 417.306L320 445.484L230.5 457.5L143 493.5L-19 513.5V621.5H1932V2L1724 50L1655.5 41L1600 77L1538.8 122.085L1513.5 128.5L1485.5 122.085H1407.38L1367.06 136.391L1324.5 145.928L1305 171.939L1259.5 187.112L1212 204.886L1187.5 228L1170.5 229.5L1149.5 230.5L1119.5 267H1093.5H1067.5H1040L1003.65 288.987L945.295 305.894L923.946 300.258H908.29L798.698 349.245L765.489 371.787L718.046 374.388L686.26 383.059L598.017 396.497Z" fill="url(#paint0_linear_334_284)"/>
<circle r="6.5" transform="matrix(1 0 0 -1 596 396)" fill="white" stroke="#50CE61" stroke-width="3"/>
<path opacity="0.15" d="M596 416V497" stroke="white"/>
<circle r="6.5" transform="matrix(1 0 0 -1 788 357)" fill="white" stroke="#50CE61" stroke-width="3"/>
<path opacity="0.15" d="M788 377V497" stroke="white"/>
<circle r="6.5" transform="matrix(1 0 0 -1 980 296)" fill="white" stroke="#50CE61" stroke-width="3"/>
<path opacity="0.15" d="M980 316V497" stroke="white"/>
<circle r="6.5" transform="matrix(1 0 0 -1 404 429)" fill="white" stroke="#50CE61" stroke-width="3"/>
<path opacity="0.15" d="M404 449V497" stroke="white"/>
<path d="M425.381 471.273C425.381 468.217 423.516 466.416 421.037 466.416C418.553 466.416 416.692 468.217 416.692 471.273C416.692 474.324 418.553 476.129 421.037 476.129C423.516 476.129 425.381 474.329 425.381 471.273ZM423.659 471.273C423.659 473.424 422.578 474.592 421.037 474.592C419.499 474.592 418.414 473.424 418.414 471.273C418.414 469.121 419.499 467.953 421.037 467.953C422.578 467.953 423.659 469.121 423.659 471.273ZM425.918 467.981H428.84V476H430.539V467.981H433.462V466.545H425.918V467.981ZM440.32 476H442.43L438.534 470.857L442.268 466.545H440.159L436.798 470.433H436.368V466.545H434.656V476H436.368V471.868H437.209L440.32 476ZM443.333 476H445.046V472.805H446.856C449.039 472.805 450.212 471.494 450.212 469.675C450.212 467.87 449.053 466.545 446.879 466.545H443.333V476ZM445.046 471.397V467.977H446.616C447.899 467.977 448.467 468.669 448.467 469.675C448.467 470.682 447.899 471.397 446.625 471.397H445.046ZM453.175 470.197V466.545H451.458V476H454.999C457.173 476 458.47 474.795 458.47 473.055C458.47 471.319 457.173 470.197 454.999 470.197H453.175ZM461.005 466.545H459.292V476H461.005V466.545ZM453.175 471.591H454.999C456.144 471.591 456.776 472.238 456.776 473.036C456.776 473.867 456.144 474.597 454.999 474.597H453.175V471.591ZM461.991 476H462.453C464.664 476 465.278 474.509 465.412 471.402L465.56 467.953H468.482V476H470.158V466.545H463.962L463.805 470.871C463.704 473.553 463.344 474.504 462.259 474.564L461.991 474.578V476ZM471.76 466.545V476H473.284L477.739 469.56H477.817V476H479.53V466.545H477.997L473.547 472.99H473.464V466.545H471.76Z" fill="#FAFAFA"/>
<path d="M420.233 493.129C422.255 493.129 423.728 491.971 423.723 490.373C423.728 489.191 422.989 488.342 421.664 488.153V488.079C422.689 487.857 423.377 487.096 423.373 486.034C423.377 484.593 422.149 483.416 420.261 483.416C418.424 483.416 417.002 484.51 416.965 486.094H418.613C418.641 485.3 419.379 484.806 420.252 484.806C421.134 484.806 421.72 485.341 421.715 486.135C421.72 486.962 421.037 487.511 420.058 487.511H419.222V488.831H420.058C421.254 488.831 421.964 489.431 421.96 490.286C421.964 491.121 421.24 491.694 420.229 491.694C419.278 491.694 418.544 491.2 418.502 490.429H416.766C416.812 492.026 418.239 493.129 420.233 493.129ZM428.543 493.18C430.823 493.185 432.185 491.384 432.185 488.282C432.185 485.198 430.814 483.416 428.543 483.416C426.271 483.416 424.905 485.194 424.9 488.282C424.9 491.38 426.262 493.18 428.543 493.18ZM428.543 491.735C427.365 491.735 426.627 490.553 426.631 488.282C426.636 486.029 427.37 484.843 428.543 484.843C429.72 484.843 430.454 486.029 430.458 488.282C430.458 490.553 429.724 491.735 428.543 491.735ZM442.596 483.545H436.516V493H438.229V484.981H442.596V483.545ZM451.826 488.273C451.826 485.217 449.961 483.416 447.482 483.416C444.998 483.416 443.138 485.217 443.138 488.273C443.138 491.324 444.998 493.129 447.482 493.129C449.961 493.129 451.826 491.329 451.826 488.273ZM450.104 488.273C450.104 490.424 449.024 491.592 447.482 491.592C445.945 491.592 444.86 490.424 444.86 488.273C444.86 486.121 445.945 484.953 447.482 484.953C449.024 484.953 450.104 486.121 450.104 488.273ZM453.185 493H454.898V489.805H456.708C458.891 489.805 460.064 488.494 460.064 486.675C460.064 484.87 458.905 483.545 456.731 483.545H453.185V493ZM454.898 488.397V484.977H456.468C457.751 484.977 458.319 485.669 458.319 486.675C458.319 487.682 457.751 488.397 456.477 488.397H454.898ZM469.74 488.273C469.74 485.217 467.875 483.416 465.396 483.416C462.912 483.416 461.051 485.217 461.051 488.273C461.051 491.324 462.912 493.129 465.396 493.129C467.875 493.129 469.74 491.329 469.74 488.273ZM468.018 488.273C468.018 490.424 466.937 491.592 465.396 491.592C463.858 491.592 462.773 490.424 462.773 488.273C462.773 486.121 463.858 484.953 465.396 484.953C466.937 484.953 468.018 486.121 468.018 488.273ZM470.485 495.281H472.128V493H478.153V495.271H479.796V491.601H478.744V483.545H472.701L472.451 487.543C472.299 490.092 471.759 491.093 471.117 491.601H470.485V495.281ZM473.112 491.601C473.615 490.775 473.98 489.478 474.095 487.543L474.243 484.981H477.1V491.601H473.112ZM489.38 488.273C489.38 485.217 487.515 483.416 485.036 483.416C482.552 483.416 480.692 485.217 480.692 488.273C480.692 491.324 482.552 493.129 485.036 493.129C487.515 493.129 489.38 491.329 489.38 488.273ZM487.658 488.273C487.658 490.424 486.578 491.592 485.036 491.592C483.498 491.592 482.414 490.424 482.414 488.273C482.414 486.121 483.498 484.953 485.036 484.953C486.578 484.953 487.658 486.121 487.658 488.273ZM490.739 493H494.566C496.731 493 497.793 491.897 497.793 490.424C497.793 488.993 496.777 488.153 495.771 488.102V488.01C496.694 487.793 497.424 487.146 497.424 485.997C497.424 484.589 496.408 483.545 494.358 483.545H490.739V493ZM492.452 491.569V488.799H494.34C495.397 488.799 496.053 489.445 496.053 490.29C496.053 491.043 495.536 491.569 494.294 491.569H492.452ZM492.452 487.566V484.958H494.183C495.189 484.958 495.711 485.489 495.711 486.218C495.711 487.049 495.037 487.566 494.146 487.566H492.452Z" fill="#50CE61"/>
<path d="M612.686 466.545H611.056L608.706 468.055V469.625L610.918 468.212H610.973V476H612.686V466.545ZM621.286 476.18C623.566 476.185 624.928 474.384 624.928 471.282C624.928 468.198 623.557 466.416 621.286 466.416C619.014 466.416 617.648 468.194 617.643 471.282C617.643 474.38 619.005 476.18 621.286 476.18ZM621.286 474.735C620.108 474.735 619.37 473.553 619.374 471.282C619.379 469.029 620.113 467.843 621.286 467.843C622.463 467.843 623.197 469.029 623.201 471.282C623.201 473.553 622.467 474.735 621.286 474.735ZM629.696 476.18C631.977 476.185 633.339 474.384 633.339 471.282C633.339 468.198 631.968 466.416 629.696 466.416C627.425 466.416 626.059 468.194 626.054 471.282C626.054 474.38 627.416 476.18 629.696 476.18ZM629.696 474.735C628.519 474.735 627.781 473.553 627.785 471.282C627.79 469.029 628.524 467.843 629.696 467.843C630.874 467.843 631.608 469.029 631.612 471.282C631.612 473.553 630.878 474.735 629.696 474.735ZM638.107 476.18C640.388 476.185 641.75 474.384 641.75 471.282C641.75 468.198 640.379 466.416 638.107 466.416C635.836 466.416 634.47 468.194 634.465 471.282C634.465 474.38 635.827 476.18 638.107 476.18ZM638.107 474.735C636.93 474.735 636.192 473.553 636.196 471.282C636.201 469.029 636.935 467.843 638.107 467.843C639.285 467.843 640.019 469.029 640.023 471.282C640.023 473.553 639.289 474.735 638.107 474.735ZM649.483 476.18C651.763 476.185 653.125 474.384 653.125 471.282C653.125 468.198 651.754 466.416 649.483 466.416C647.212 466.416 645.845 468.194 645.84 471.282C645.84 474.38 647.202 476.18 649.483 476.18ZM649.483 474.735C648.306 474.735 647.567 473.553 647.572 471.282C647.576 469.029 648.31 467.843 649.483 467.843C650.66 467.843 651.394 469.029 651.399 471.282C651.399 473.553 650.665 474.735 649.483 474.735ZM657.894 476.18C660.174 476.185 661.536 474.384 661.536 471.282C661.536 468.198 660.165 466.416 657.894 466.416C655.622 466.416 654.256 468.194 654.251 471.282C654.251 474.38 655.613 476.18 657.894 476.18ZM657.894 474.735C656.717 474.735 655.978 473.553 655.983 471.282C655.987 469.029 656.721 467.843 657.894 467.843C659.071 467.843 659.805 469.029 659.81 471.282C659.81 473.553 659.076 474.735 657.894 474.735ZM666.305 476.18C668.585 476.185 669.947 474.384 669.947 471.282C669.947 468.198 668.576 466.416 666.305 466.416C664.033 466.416 662.667 468.194 662.662 471.282C662.662 474.38 664.024 476.18 666.305 476.18ZM666.305 474.735C665.127 474.735 664.389 473.553 664.393 471.282C664.398 469.029 665.132 467.843 666.305 467.843C667.482 467.843 668.216 469.029 668.221 471.282C668.221 473.553 667.486 474.735 666.305 474.735Z" fill="#50CE61"/>
<path d="M616.647 483.545H609.113V493H610.811V484.967H614.948V493H616.647V483.545ZM626.883 488.273C626.883 485.217 625.018 483.416 622.539 483.416C620.056 483.416 618.195 485.217 618.195 488.273C618.195 491.324 620.056 493.129 622.539 493.129C625.018 493.129 626.883 491.329 626.883 488.273ZM625.161 488.273C625.161 490.424 624.081 491.592 622.539 491.592C621.002 491.592 619.917 490.424 619.917 488.273C619.917 486.121 621.002 484.953 622.539 484.953C624.081 484.953 625.161 486.121 625.161 488.273ZM633.907 493H636.017L632.12 487.857L635.855 483.545H633.745L630.385 487.433H629.955V483.545H628.243V493H629.955V488.868H630.796L633.907 493ZM637.765 493.129H638.439C639.953 493.129 640.512 492.252 640.96 491.255L644.219 483.545H642.455L640.419 488.605L638.065 483.545H636.274L639.653 490.498L639.528 490.816C639.335 491.347 639.039 491.689 638.305 491.689H637.765V493.129ZM652.893 483.545H645.359V493H647.058V484.967H651.194V493H652.893V483.545ZM655.895 493L656.676 490.669H660.23L661.015 493H662.843L659.51 483.545H657.396L654.067 493H655.895ZM657.137 489.293L658.416 485.484H658.49L659.769 489.293H657.137ZM662.271 484.981H665.193V493H666.892V484.981H669.814V483.545H662.271V484.981ZM671.008 493H677.194V491.564H672.721V488.984H676.839V487.548H672.721V484.981H677.157V483.545H671.008V493ZM678.031 493H678.492C680.703 493 681.317 491.509 681.451 488.402L681.599 484.953H684.521V493H686.197V483.545H680.002L679.845 487.871C679.743 490.553 679.383 491.504 678.298 491.564L678.031 491.578V493ZM687.804 493H693.991V491.564H689.517V488.984H693.635V487.548H689.517V484.981H693.954V483.545H687.804V493ZM695.436 483.545V493H696.96L701.415 486.56H701.493V493H703.206V483.545H701.673L697.223 489.99H697.14V483.545H695.436ZM700.233 481.108C700.228 481.56 699.97 481.962 699.319 481.962C698.659 481.962 698.409 481.551 698.409 481.108H697.167C697.163 482.188 697.998 482.918 699.319 482.918C700.648 482.918 701.484 482.188 701.484 481.108H700.233Z" fill="#FAFAFA"/>
<path d="M800.933 476H804.76C806.925 476 807.987 474.897 807.987 473.424C807.987 471.993 806.971 471.153 805.964 471.102V471.01C806.888 470.793 807.617 470.146 807.617 468.997C807.617 467.589 806.602 466.545 804.552 466.545H800.933V476ZM802.645 474.569V471.799H804.533C805.591 471.799 806.246 472.445 806.246 473.29C806.246 474.043 805.729 474.569 804.487 474.569H802.645ZM802.645 470.566V467.958H804.376C805.383 467.958 805.904 468.489 805.904 469.218C805.904 470.049 805.23 470.566 804.339 470.566H802.645ZM810.952 470.197V466.545H809.235V476H812.776C814.95 476 816.247 474.795 816.247 473.055C816.247 471.319 814.95 470.197 812.776 470.197H810.952ZM818.782 466.545H817.069V476H818.782V466.545ZM810.952 471.591H812.776C813.921 471.591 814.553 472.238 814.553 473.036C814.553 473.867 813.921 474.597 812.776 474.597H810.952V471.591ZM820.632 466.545V476H831.48V466.545H829.804V474.578H826.91V466.545H825.234V474.578H822.317V466.545H820.632ZM832.724 476H833.186C835.397 476 836.011 474.509 836.145 471.402L836.293 467.953H839.215V476H840.891V466.545H834.695L834.538 470.871C834.437 473.553 834.077 474.504 832.992 474.564L832.724 474.578V476ZM842.493 466.545V476H844.017L848.472 469.56H848.55V476H850.263V466.545H848.73L844.28 472.99H844.197V466.545H842.493ZM854.838 476H856.551V471.984H860.932V476H862.649V466.545H860.932V470.548H856.551V466.545H854.838V476ZM865.466 476L866.246 473.669H869.801L870.586 476H872.414L869.081 466.545H866.967L863.638 476H865.466ZM866.708 472.293L867.987 468.484H868.061L869.34 472.293H866.708ZM865.376 493H869.203C871.368 493 872.43 491.897 872.43 490.424C872.43 488.993 871.414 488.153 870.408 488.102V488.01C871.331 487.793 872.061 487.146 872.061 485.997C872.061 484.589 871.045 483.545 868.995 483.545H865.376V493ZM867.089 491.569V488.799H868.977C870.034 488.799 870.69 489.445 870.69 490.29C870.69 491.043 870.172 491.569 868.931 491.569H867.089ZM867.089 487.566V484.958H868.82C869.826 484.958 870.348 485.489 870.348 486.218C870.348 487.049 869.674 487.566 868.783 487.566H867.089ZM884.717 486.735C884.426 484.635 882.811 483.416 880.715 483.416C878.245 483.416 876.384 485.217 876.384 488.273C876.384 491.324 878.222 493.129 880.715 493.129C882.963 493.129 884.454 491.675 884.717 489.87L882.991 489.861C882.774 490.969 881.869 491.592 880.738 491.592C879.205 491.592 878.106 490.442 878.106 488.273C878.106 486.14 879.196 484.953 880.742 484.953C881.892 484.953 882.792 485.604 882.991 486.735H884.717ZM886.87 493.129H887.544C889.059 493.129 889.617 492.252 890.065 491.255L893.324 483.545H891.561L889.525 488.605L887.171 483.545H885.379L888.759 490.498L888.634 490.816C888.44 491.347 888.145 491.689 887.411 491.689H886.87V493.129ZM894.465 484.981H897.388V493H899.086V484.981H902.009V483.545H894.465V484.981ZM908.867 493H910.977L907.081 487.857L910.815 483.545H908.706L905.345 487.433H904.916V483.545H903.203V493H904.916V488.868H905.756L908.867 493ZM911.876 483.545V493H913.399L917.854 486.56H917.933V493H919.645V483.545H918.113L913.662 489.99H913.579V483.545H911.876Z" fill="#FAFAFA"/>
<path d="M876.272 476H882.753V474.569H878.635V474.504L880.265 472.847C882.102 471.083 882.61 470.225 882.61 469.158C882.61 467.575 881.322 466.416 879.42 466.416C877.546 466.416 876.216 467.58 876.216 469.375H877.846C877.846 468.411 878.455 467.806 879.397 467.806C880.297 467.806 880.967 468.355 880.967 469.246C880.967 470.036 880.487 470.599 879.554 471.545L876.272 474.763V476ZM887.373 476.129C889.372 476.129 890.766 474.772 890.766 472.893C890.766 471.074 889.501 469.763 887.784 469.763C887.017 469.763 886.339 470.068 885.988 470.483H885.932L886.205 467.977H890.272V466.545H884.788L884.294 471.42L885.84 471.674C886.159 471.324 886.759 471.088 887.327 471.093C888.365 471.097 889.113 471.864 889.109 472.935C889.113 473.992 888.384 474.744 887.373 474.744C886.519 474.744 885.831 474.204 885.771 473.429H884.109C884.155 474.998 885.526 476.129 887.373 476.129ZM898.512 476.18C900.792 476.185 902.154 474.384 902.154 471.282C902.154 468.198 900.783 466.416 898.512 466.416C896.24 466.416 894.874 468.194 894.869 471.282C894.869 474.38 896.231 476.18 898.512 476.18ZM898.512 474.735C897.335 474.735 896.596 473.553 896.601 471.282C896.605 469.029 897.339 467.843 898.512 467.843C899.689 467.843 900.423 469.029 900.428 471.282C900.428 473.553 899.694 474.735 898.512 474.735ZM906.923 476.18C909.203 476.185 910.565 474.384 910.565 471.282C910.565 468.198 909.194 466.416 906.923 466.416C904.651 466.416 903.285 468.194 903.28 471.282C903.28 474.38 904.642 476.18 906.923 476.18ZM906.923 474.735C905.745 474.735 905.007 473.553 905.011 471.282C905.016 469.029 905.75 467.843 906.923 467.843C908.1 467.843 908.834 469.029 908.838 471.282C908.838 473.553 908.104 474.735 906.923 474.735ZM915.334 476.18C917.614 476.185 918.976 474.384 918.976 471.282C918.976 468.198 917.605 466.416 915.334 466.416C913.062 466.416 911.696 468.194 911.691 471.282C911.691 474.38 913.053 476.18 915.334 476.18ZM915.334 474.735C914.156 474.735 913.418 473.553 913.422 471.282C913.427 469.029 914.161 467.843 915.334 467.843C916.511 467.843 917.245 469.029 917.249 471.282C917.249 473.553 916.515 474.735 915.334 474.735ZM804.233 493.129C806.255 493.129 807.728 491.971 807.723 490.373C807.728 489.191 806.989 488.342 805.664 488.153V488.079C806.689 487.857 807.377 487.096 807.373 486.034C807.377 484.593 806.149 483.416 804.261 483.416C802.424 483.416 801.002 484.51 800.965 486.094H802.613C802.641 485.3 803.379 484.806 804.252 484.806C805.134 484.806 805.72 485.341 805.715 486.135C805.72 486.962 805.037 487.511 804.058 487.511H803.222V488.831H804.058C805.254 488.831 805.964 489.431 805.96 490.286C805.964 491.121 805.24 491.694 804.229 491.694C803.278 491.694 802.544 491.2 802.502 490.429H800.766C800.812 492.026 802.239 493.129 804.233 493.129ZM810.354 493L811.135 490.669H814.689L815.474 493H817.302L813.969 483.545H811.855L808.526 493H810.354ZM811.596 489.293L812.875 485.484H812.949L814.228 489.293H811.596ZM823.952 493H826.062L822.165 487.857L825.9 483.545H823.79L820.43 487.433H820V483.545H818.288V493H820V488.868H820.84L823.952 493ZM828.179 493L828.959 490.669H832.514L833.299 493H835.127L831.794 483.545H829.68L826.351 493H828.179ZM829.421 489.293L830.7 485.484H830.774L832.052 489.293H829.421ZM839.413 493.129C841.435 493.129 842.908 491.971 842.903 490.373C842.908 489.191 842.169 488.342 840.844 488.153V488.079C841.869 487.857 842.557 487.096 842.552 486.034C842.557 484.593 841.329 483.416 839.441 483.416C837.603 483.416 836.182 484.51 836.145 486.094H837.793C837.82 485.3 838.559 484.806 839.432 484.806C840.313 484.806 840.9 485.341 840.895 486.135C840.9 486.962 840.216 487.511 839.238 487.511H838.402V488.831H839.238C840.433 488.831 841.144 489.431 841.14 490.286C841.144 491.121 840.419 491.694 839.408 491.694C838.457 491.694 837.723 491.2 837.682 490.429H835.946C835.992 492.026 837.419 493.129 839.413 493.129ZM852.768 488.273C852.768 485.217 850.903 483.416 848.424 483.416C845.94 483.416 844.08 485.217 844.08 488.273C844.08 491.324 845.94 493.129 848.424 493.129C850.903 493.129 852.768 491.329 852.768 488.273ZM851.046 488.273C851.046 490.424 849.966 491.592 848.424 491.592C846.887 491.592 845.802 490.424 845.802 488.273C845.802 486.121 846.887 484.953 848.424 484.953C849.966 484.953 851.046 486.121 851.046 488.273ZM854.127 493H857.954C860.12 493 861.181 491.897 861.181 490.424C861.181 488.993 860.166 488.153 859.159 488.102V488.01C860.083 487.793 860.812 487.146 860.812 485.997C860.812 484.589 859.796 483.545 857.747 483.545H854.127V493ZM855.84 491.569V488.799H857.728C858.785 488.799 859.441 489.445 859.441 490.29C859.441 491.043 858.924 491.569 857.682 491.569H855.84ZM855.84 487.566V484.958H857.571C858.578 484.958 859.099 485.489 859.099 486.218C859.099 487.049 858.425 487.566 857.534 487.566H855.84Z" fill="#50CE61"/>
<path d="M1000.65 466.545H993.113V476H994.811V467.967H998.948V476H1000.65V466.545ZM1002.44 476H1008.62V474.564H1004.15V471.984H1008.27V470.548H1004.15V467.981H1008.58V466.545H1002.44V476ZM1010.07 476H1011.78V472.805H1013.59C1015.78 472.805 1016.95 471.494 1016.95 469.675C1016.95 467.87 1015.79 466.545 1013.62 466.545H1010.07V476ZM1011.78 471.397V467.977H1013.35C1014.64 467.977 1015.21 468.669 1015.21 469.675C1015.21 470.682 1014.64 471.397 1013.36 471.397H1011.78ZM1018.18 476H1024.36V474.564H1019.89V471.984H1024.01V470.548H1019.89V467.981H1024.33V466.545H1018.18V476ZM1025.81 476H1032V474.564H1027.53V471.984H1031.65V470.548H1027.53V467.981H1031.96V466.545H1025.81V476ZM1034.88 466.545H1032.92L1035.87 471.273L1032.88 476H1034.86L1036.96 472.561H1037.04L1039.14 476H1041.13L1038.17 471.273L1041.08 466.545H1039.13L1037.04 470.008H1036.96L1034.88 466.545ZM1043.38 476L1044.16 473.669H1047.72L1048.5 476H1050.33L1047 466.545H1044.88L1041.55 476H1043.38ZM1044.62 472.293L1045.9 468.484H1045.98L1047.25 472.293H1044.62ZM1050.7 476H1051.16C1053.37 476 1053.99 474.509 1054.12 471.402L1054.27 467.953H1057.19V476H1058.87V466.545H1052.67L1052.51 470.871C1052.41 473.553 1052.05 474.504 1050.97 474.564L1050.7 474.578V476ZM1060.47 466.545V476H1061.99L1066.45 469.56H1066.53V476H1068.24V466.545H1066.71L1062.26 472.99H1062.17V466.545H1060.47ZM1072.81 476H1074.53V471.984H1078.91V476H1080.63V466.545H1078.91V470.548H1074.53V466.545H1072.81V476ZM1083.44 476L1084.22 473.669H1087.78L1088.56 476H1090.39L1087.06 466.545H1084.94L1081.61 476H1083.44ZM1084.68 472.293L1085.96 468.484H1086.04L1087.32 472.293H1084.68Z" fill="#FAFAFA"/>
<path d="M992.933 493H994.645V488.984H999.026V493H1000.74V483.545H999.026V487.548H994.645V483.545H992.933V493ZM1010.79 488.273C1010.79 485.217 1008.93 483.416 1006.45 483.416C1003.97 483.416 1002.11 485.217 1002.11 488.273C1002.11 491.324 1003.97 493.129 1006.45 493.129C1008.93 493.129 1010.79 491.329 1010.79 488.273ZM1009.07 488.273C1009.07 490.424 1007.99 491.592 1006.45 491.592C1004.91 491.592 1003.83 490.424 1003.83 488.273C1003.83 486.121 1004.91 484.953 1006.45 484.953C1007.99 484.953 1009.07 486.121 1009.07 488.273ZM1012.15 493H1015.98C1018.15 493 1019.21 491.897 1019.21 490.424C1019.21 488.993 1018.19 488.153 1017.19 488.102V488.01C1018.11 487.793 1018.84 487.146 1018.84 485.997C1018.84 484.589 1017.82 483.545 1015.77 483.545H1012.15V493ZM1013.87 491.569V488.799H1015.75C1016.81 488.799 1017.47 489.445 1017.47 490.29C1017.47 491.043 1016.95 491.569 1015.71 491.569H1013.87ZM1013.87 487.566V484.958H1015.6C1016.6 484.958 1017.13 485.489 1017.13 486.218C1017.13 487.049 1016.45 487.566 1015.56 487.566H1013.87ZM1022.17 487.197V483.545H1020.46V493H1024C1026.17 493 1027.47 491.795 1027.47 490.055C1027.47 488.319 1026.17 487.197 1024 487.197H1022.17ZM1030 483.545H1028.29V493H1030V483.545ZM1022.17 488.591H1024C1025.14 488.591 1025.77 489.238 1025.77 490.036C1025.77 490.867 1025.14 491.597 1024 491.597H1022.17V488.591ZM1031.6 483.545V493H1033.12L1037.58 486.56H1037.66V493H1039.37V483.545H1037.84L1033.39 489.99H1033.3V483.545H1031.6ZM1036.4 481.108C1036.39 481.56 1036.13 481.962 1035.48 481.962C1034.82 481.962 1034.57 481.551 1034.57 481.108H1033.33C1033.33 482.188 1034.16 482.918 1035.48 482.918C1036.81 482.918 1037.65 482.188 1037.65 481.108H1036.4ZM1052.04 486.735C1051.75 484.635 1050.13 483.416 1048.03 483.416C1045.56 483.416 1043.7 485.217 1043.7 488.273C1043.7 491.324 1045.54 493.129 1048.03 493.129C1050.28 493.129 1051.77 491.675 1052.04 489.87L1050.31 489.861C1050.09 490.969 1049.19 491.592 1048.06 491.592C1046.52 491.592 1045.43 490.442 1045.43 488.273C1045.43 486.14 1046.52 484.953 1048.06 484.953C1049.21 484.953 1050.11 485.604 1050.31 486.735H1052.04ZM1059.01 493H1061.12L1057.22 487.857L1060.96 483.545H1058.85L1055.49 487.433H1055.06V483.545H1053.34V493H1055.06V488.868H1055.9L1059.01 493ZM1061.41 493H1061.87C1064.08 493 1064.7 491.509 1064.83 488.402L1064.98 484.953H1067.9V493H1069.58V483.545H1063.38L1063.22 487.871C1063.12 490.553 1062.76 491.504 1061.68 491.564L1061.41 491.578V493ZM1072.4 493L1073.18 490.669H1076.73L1077.52 493H1079.34L1076.01 483.545H1073.9L1070.57 493H1072.4ZM1073.64 489.293L1074.92 485.484H1074.99L1076.27 489.293H1073.64ZM1079.72 495.281H1081.36V493H1087.38V495.271H1089.03V491.601H1087.97V483.545H1081.93L1081.68 487.543C1081.53 490.092 1080.99 491.093 1080.35 491.601H1079.72V495.281ZM1082.34 491.601C1082.85 490.775 1083.21 489.478 1083.33 487.543L1083.47 484.981H1086.33V491.601H1082.34Z" fill="#50CE61"/>
<defs>
<linearGradient id="paint0_linear_334_284" x1="877.374" y1="2" x2="877.374" y2="621.5" gradientUnits="userSpaceOnUse">
<stop stop-color="#50CE61" stop-opacity="0.6"/>
<stop offset="1" stop-color="#50CE61" stop-opacity="0"/>
</linearGradient>
</defs>
</svg>
