<svg width="502" height="502" viewBox="0 0 502 502" fill="none" xmlns="http://www.w3.org/2000/svg">
<circle cx="251" cy="251" r="251" fill="#50CE61"/>
<path d="M159.405 325.421H161.87V322H170.907V325.407H173.372V319.902H171.793V307.818H162.729L162.355 313.815C162.126 317.637 161.316 319.14 160.354 319.902H159.405V325.421ZM163.345 319.902C164.1 318.662 164.647 316.716 164.82 313.815L165.042 309.972H169.328V319.902H163.345ZM175.068 307.818V322H177.353L184.036 312.34H184.153V322H186.722V307.818H184.423L177.748 317.485H177.623V307.818H175.068ZM189.139 322H191.708V315.975H198.279V322H200.855V307.818H198.279V313.822H191.708V307.818H189.139V322ZM205.081 322L206.251 318.503H211.583L212.76 322H215.502L210.503 307.818H207.331L202.338 322H205.081ZM206.943 316.439L208.861 310.727H208.972L210.89 316.439H206.943ZM216.98 307.818V322H219.445V312.236H219.577L223.496 321.958H225.338L229.258 312.257H229.389V322H231.854V307.818H228.711L224.5 318.094H224.334L220.124 307.818H216.98ZM234.255 307.818V322H236.54L243.223 312.34H243.34V322H245.909V307.818H243.61L236.935 317.485H236.81V307.818H234.255ZM256.822 322H259.987L254.142 314.286L259.745 307.818H256.58L251.539 313.649H250.895V307.818H248.326V322H250.895V315.802H252.155L256.822 322ZM263.163 322L264.333 318.503H269.665L270.843 322H273.585L268.585 307.818H265.414L260.421 322H263.163ZM265.026 316.439L266.944 310.727H267.055L268.973 316.439H265.026ZM279.51 322H282.079V317.208H284.793C288.069 317.208 289.827 315.241 289.827 312.513C289.827 309.806 288.089 307.818 284.828 307.818H279.51V322ZM282.079 315.096V309.965H284.433C286.358 309.965 287.21 311.004 287.21 312.513C287.21 314.023 286.358 315.096 284.447 315.096H282.079ZM304.341 314.909C304.341 310.325 301.544 307.624 297.825 307.624C294.1 307.624 291.309 310.325 291.309 314.909C291.309 319.486 294.1 322.194 297.825 322.194C301.544 322.194 304.341 319.493 304.341 314.909ZM301.758 314.909C301.758 318.136 300.138 319.888 297.825 319.888C295.519 319.888 293.892 318.136 293.892 314.909C293.892 311.682 295.519 309.93 297.825 309.93C300.138 309.93 301.758 311.682 301.758 314.909ZM318.519 312.603C318.083 309.452 315.659 307.624 312.515 307.624C308.811 307.624 306.02 310.325 306.02 314.909C306.02 319.486 308.776 322.194 312.515 322.194C315.888 322.194 318.124 320.013 318.519 317.305L315.929 317.291C315.604 318.953 314.247 319.888 312.55 319.888C310.251 319.888 308.603 318.164 308.603 314.909C308.603 311.71 310.237 309.93 312.557 309.93C314.281 309.93 315.631 310.907 315.929 312.603H318.519ZM319.859 309.972H324.242V322H326.79V309.972H331.174V307.818H319.859V309.972ZM333.072 322L334.242 318.503H339.574L340.752 322H343.494L338.494 307.818H335.323L330.33 322H333.072ZM334.935 316.439L336.853 310.727H336.964L338.882 316.439H334.935ZM166.375 347H169.54L163.696 339.286L169.298 332.818H166.133L161.092 338.649H160.448V332.818H157.879V347H160.448V340.802H161.708L166.375 347ZM182.806 339.909C182.806 335.325 180.008 332.624 176.289 332.624C172.564 332.624 169.773 335.325 169.773 339.909C169.773 344.486 172.564 347.194 176.289 347.194C180.008 347.194 182.806 344.493 182.806 339.909ZM180.223 339.909C180.223 343.136 178.602 344.888 176.289 344.888C173.983 344.888 172.356 343.136 172.356 339.909C172.356 336.682 173.983 334.93 176.289 334.93C178.602 334.93 180.223 336.682 180.223 339.909ZM184.844 332.818V347H187.31V337.236H187.441L191.361 346.958H193.203L197.122 337.257H197.253V347H199.719V332.818H196.575L192.365 343.094H192.198L187.988 332.818H184.844ZM213.697 332.818H202.396V347H204.945V334.951H211.149V347H213.697V332.818ZM218.202 347L219.372 343.503H224.704L225.881 347H228.623L223.624 332.818H220.452L215.459 347H218.202ZM220.064 341.439L221.982 335.727H222.093L224.011 341.439H220.064ZM230.101 347H232.67V340.975H239.242V347H241.818V332.818H239.242V338.822H232.67V332.818H230.101V347ZM244.215 332.818V347H246.5L253.182 337.34H253.3V347H255.869V332.818H253.57L246.895 342.485H246.77V332.818H244.215ZM258.279 332.818V347H260.564L267.246 337.34H267.364V347H269.933V332.818H267.634L260.958 342.485H260.834V332.818H258.279ZM281.747 347.194C284.78 347.194 286.989 345.456 286.982 343.06C286.989 341.287 285.881 340.013 283.894 339.729V339.618C285.431 339.286 286.463 338.143 286.456 336.551C286.463 334.39 284.621 332.624 281.789 332.624C279.033 332.624 276.9 334.265 276.845 336.641H279.317C279.358 335.45 280.466 334.709 281.775 334.709C283.098 334.709 283.977 335.512 283.97 336.703C283.977 337.942 282.952 338.767 281.484 338.767H280.231V340.747H281.484C283.278 340.747 284.344 341.647 284.337 342.928C284.344 344.182 283.257 345.04 281.74 345.04C280.314 345.04 279.213 344.299 279.15 343.143H276.547C276.616 345.539 278.756 347.194 281.747 347.194ZM290.929 347L292.099 343.503H297.431L298.608 347H301.351L296.351 332.818H293.179L288.187 347H290.929ZM292.792 341.439L294.71 335.727H294.821L296.739 341.439H292.792ZM316.395 332.818H307.275V347H309.845V334.972H316.395V332.818ZM330.241 339.909C330.241 335.325 327.443 332.624 323.725 332.624C319.999 332.624 317.208 335.325 317.208 339.909C317.208 344.486 319.999 347.194 323.725 347.194C327.443 347.194 330.241 344.493 330.241 339.909ZM327.658 339.909C327.658 343.136 326.037 344.888 323.725 344.888C321.419 344.888 319.791 343.136 319.791 339.909C319.791 336.682 321.419 334.93 323.725 334.93C326.037 334.93 327.658 336.682 327.658 339.909ZM331.359 350.421H333.824V347H342.861V350.407H345.326V344.902H343.747V332.818H334.682L334.309 338.815C334.08 342.637 333.27 344.14 332.307 344.902H331.359V350.421ZM335.299 344.902C336.054 343.662 336.601 341.716 336.774 338.815L336.995 334.972H341.282V344.902H335.299Z" fill="white"/>
<path d="M130.205 267.238C149.747 267.371 162.878 253.93 162.833 236.025C162.878 218.915 150.675 206.535 134.803 206.535C125.077 206.535 116.5 211.266 112.167 219.047H111.548C111.592 199.992 118.578 188.409 131.134 188.409C138.915 188.409 144.176 192.918 145.856 199.859H161.993C160.048 185.225 148.244 174.217 131.134 174.217C109.382 174.217 95.6317 192.343 95.6317 223.292C95.5875 256.494 112.83 267.15 130.205 267.238ZM130.117 253.974C120.434 253.974 113.361 245.972 113.316 236.511C113.405 227.005 120.744 219.047 130.338 219.047C139.932 219.047 146.961 226.652 146.917 236.378C146.961 246.282 139.711 253.974 130.117 253.974ZM176.113 266H193.134L231.598 189.47V175.455H169.923V189.16H214.621V189.779L176.113 266ZM240.888 266H302.961V252.294H263.524V251.675L279.131 235.803C296.727 218.915 301.59 210.691 301.59 200.478C301.59 185.314 289.255 174.217 271.04 174.217C253.09 174.217 240.357 185.358 240.357 202.556H255.964C255.964 193.316 261.8 187.524 270.819 187.524C279.44 187.524 285.851 192.786 285.851 201.318C285.851 208.879 281.253 214.272 272.322 223.336L240.888 254.151V266ZM361.646 249.023C361.69 259.545 368.366 268.52 380.789 268.52C393.169 268.52 399.977 259.545 399.933 249.023V244.248C399.977 233.637 393.345 224.751 380.789 224.751C368.543 224.751 361.69 233.725 361.646 244.248V249.023ZM315.621 197.207C315.666 207.729 322.342 216.616 334.809 216.616C347.144 216.616 353.953 207.817 353.909 197.207V192.432C353.953 181.821 347.321 172.934 334.809 172.934C322.607 172.934 315.666 181.821 315.621 192.432V197.207ZM319.6 266H330.698L392.948 175.455H381.85L319.6 266ZM373.185 244.248C373.229 239.561 375.219 234.831 380.789 234.831C386.625 234.831 388.35 239.561 388.305 244.248V249.023C388.35 253.709 386.448 258.351 380.789 258.351C375.13 258.351 373.229 253.665 373.185 249.023V244.248ZM327.249 192.432C327.293 187.79 329.194 183.015 334.809 183.015C340.645 183.015 342.325 187.745 342.281 192.432V197.207C342.325 201.893 340.468 206.535 334.809 206.535C329.15 206.535 327.293 201.893 327.249 197.207V192.432Z" fill="white"/>
</svg>
