<svg width="360" height="360" viewBox="0 0 360 360" fill="none" xmlns="http://www.w3.org/2000/svg">
<circle cx="180" cy="180" r="180" fill="#50CE61"/>
<path d="M119.27 239.281H120.913V237H126.938V239.271H128.581V235.601H127.529V227.545H121.486L121.237 231.543C121.084 234.092 120.544 235.093 119.902 235.601H119.27V239.281ZM121.897 235.601C122.4 234.775 122.765 233.478 122.88 231.543L123.028 228.981H125.885V235.601H121.897ZM129.712 227.545V237H131.235L135.69 230.56H135.769V237H137.482V227.545H135.949L131.499 233.99H131.416V227.545H129.712ZM139.092 237H140.805V232.984H145.186V237H146.903V227.545H145.186V231.548H140.805V227.545H139.092V237ZM149.72 237L150.501 234.669H154.055L154.84 237H156.668L153.335 227.545H151.221L147.892 237H149.72ZM150.962 233.293L152.241 229.484H152.315L153.594 233.293H150.962ZM157.653 227.545V237H159.297V230.491H159.385L161.998 236.972H163.226L165.838 230.505H165.926V237H167.57V227.545H165.474L162.667 234.396H162.556L159.749 227.545H157.653ZM169.17 227.545V237H170.694L175.148 230.56H175.227V237H176.94V227.545H175.407L170.957 233.99H170.874V227.545H169.17ZM184.215 237H186.325L182.428 231.857L186.163 227.545H184.053L180.692 231.433H180.263V227.545H178.55V237H180.263V232.868H181.103L184.215 237ZM188.442 237L189.222 234.669H192.777L193.562 237H195.39L192.057 227.545H189.942L186.614 237H188.442ZM189.684 233.293L190.963 229.484H191.037L192.315 233.293H189.684ZM199.34 237H201.052V233.805H202.862C205.046 233.805 206.218 232.494 206.218 230.675C206.218 228.87 205.06 227.545 202.885 227.545H199.34V237ZM201.052 232.397V228.977H202.622C203.905 228.977 204.473 229.669 204.473 230.675C204.473 231.682 203.905 232.397 202.631 232.397H201.052ZM215.894 232.273C215.894 229.217 214.029 227.416 211.55 227.416C209.066 227.416 207.206 229.217 207.206 232.273C207.206 235.324 209.066 237.129 211.55 237.129C214.029 237.129 215.894 235.329 215.894 232.273ZM214.172 232.273C214.172 234.424 213.092 235.592 211.55 235.592C210.013 235.592 208.928 234.424 208.928 232.273C208.928 230.121 210.013 228.953 211.55 228.953C213.092 228.953 214.172 230.121 214.172 232.273ZM225.346 230.735C225.055 228.635 223.439 227.416 221.344 227.416C218.874 227.416 217.013 229.217 217.013 232.273C217.013 235.324 218.851 237.129 221.344 237.129C223.592 237.129 225.083 235.675 225.346 233.87L223.619 233.861C223.403 234.969 222.498 235.592 221.367 235.592C219.834 235.592 218.735 234.442 218.735 232.273C218.735 230.14 219.825 228.953 221.371 228.953C222.521 228.953 223.421 229.604 223.619 230.735H225.346ZM226.239 228.981H229.161V237H230.86V228.981H233.782V227.545H226.239V228.981ZM235.048 237L235.828 234.669H239.383L240.168 237H241.996L238.663 227.545H236.548L233.22 237H235.048ZM236.29 233.293L237.569 229.484H237.643L238.921 233.293H236.29ZM123.917 254H126.027L122.13 248.857L125.865 244.545H123.755L120.395 248.433H119.965V244.545H118.253V254H119.965V249.868H120.805L123.917 254ZM134.87 249.273C134.87 246.217 133.005 244.416 130.526 244.416C128.043 244.416 126.182 246.217 126.182 249.273C126.182 252.324 128.043 254.129 130.526 254.129C133.005 254.129 134.87 252.329 134.87 249.273ZM133.148 249.273C133.148 251.424 132.068 252.592 130.526 252.592C128.989 252.592 127.904 251.424 127.904 249.273C127.904 247.121 128.989 245.953 130.526 245.953C132.068 245.953 133.148 247.121 133.148 249.273ZM136.23 244.545V254H137.873V247.491H137.961L140.574 253.972H141.802L144.415 247.505H144.502V254H146.146V244.545H144.05L141.243 251.396H141.132L138.325 244.545H136.23ZM155.465 244.545H147.931V254H149.63V245.967H153.766V254H155.465V244.545ZM158.468 254L159.248 251.669H162.803L163.587 254H165.415L162.082 244.545H159.968L156.64 254H158.468ZM159.71 250.293L160.988 246.484H161.062L162.341 250.293H159.71ZM166.401 254H168.113V249.984H172.495V254H174.212V244.545H172.495V248.548H168.113V244.545H166.401V254ZM175.81 244.545V254H177.333L181.788 247.56H181.867V254H183.58V244.545H182.047L177.597 250.99H177.513V244.545H175.81ZM185.186 244.545V254H186.709L191.164 247.56H191.243V254H192.955V244.545H191.423L186.972 250.99H186.889V244.545H185.186ZM200.831 254.129C202.853 254.129 204.326 252.971 204.322 251.373C204.326 250.191 203.588 249.342 202.263 249.153V249.079C203.287 248.857 203.975 248.096 203.971 247.034C203.975 245.593 202.747 244.416 200.859 244.416C199.022 244.416 197.6 245.51 197.563 247.094H199.211C199.239 246.3 199.977 245.806 200.85 245.806C201.732 245.806 202.318 246.341 202.313 247.135C202.318 247.962 201.635 248.511 200.656 248.511H199.82V249.831H200.656C201.852 249.831 202.563 250.431 202.558 251.286C202.563 252.121 201.838 252.694 200.827 252.694C199.876 252.694 199.142 252.2 199.1 251.429H197.365C197.411 253.026 198.837 254.129 200.831 254.129ZM206.953 254L207.733 251.669H211.287L212.072 254H213.9L210.567 244.545H208.453L205.124 254H206.953ZM208.194 250.293L209.473 246.484H209.547L210.826 250.293H208.194ZM223.93 244.545H217.85V254H219.563V245.981H223.93V244.545ZM233.161 249.273C233.161 246.217 231.295 244.416 228.816 244.416C226.333 244.416 224.472 246.217 224.472 249.273C224.472 252.324 226.333 254.129 228.816 254.129C231.295 254.129 233.161 252.329 233.161 249.273ZM231.439 249.273C231.439 251.424 230.358 252.592 228.816 252.592C227.279 252.592 226.194 251.424 226.194 249.273C226.194 247.121 227.279 245.953 228.816 245.953C230.358 245.953 231.439 247.121 231.439 249.273ZM233.906 256.281H235.549V254H241.574V256.271H243.217V252.601H242.165V244.545H236.122L235.872 248.543C235.72 251.092 235.18 252.093 234.538 252.601H233.906V256.281ZM236.533 252.601C237.036 251.775 237.4 250.478 237.516 248.543L237.664 245.981H240.521V252.601H236.533Z" fill="white"/>
<path d="M78.0824 211.054C94.7202 211.167 105.9 199.724 105.862 184.479C105.9 169.911 95.5107 159.371 81.9972 159.371C73.7159 159.371 66.4134 163.399 62.7244 170.024H62.1974C62.2351 153.8 68.1825 143.938 78.8729 143.938C85.4979 143.938 89.9773 147.778 91.4077 153.688H105.147C103.491 141.228 93.4403 131.855 78.8729 131.855C60.353 131.855 48.6463 147.288 48.6463 173.638C48.6087 201.907 63.2891 210.979 78.0824 211.054ZM78.0071 199.761C69.7635 199.761 63.7408 192.948 63.7031 184.893C63.7784 176.8 70.027 170.024 78.1953 170.024C86.3636 170.024 92.3487 176.499 92.3111 184.78C92.3487 193.212 86.1754 199.761 78.0071 199.761ZM117.168 210H131.661L164.409 144.842V132.909H111.898V144.578H149.955V145.105L117.168 210ZM172.318 210H225.168V198.331H191.591V197.804L204.878 184.29C219.86 169.911 224.001 162.91 224.001 154.214C224.001 141.303 213.499 131.855 197.99 131.855C182.707 131.855 171.866 141.341 171.866 155.984H185.154C185.154 148.116 190.123 143.185 197.802 143.185C205.142 143.185 210.6 147.665 210.6 154.93C210.6 161.366 206.685 165.959 199.082 173.675L172.318 199.912V210ZM275.132 195.545C275.17 204.504 280.854 212.146 291.431 212.146C301.971 212.146 307.768 204.504 307.73 195.545V191.48C307.768 182.446 302.121 174.88 291.431 174.88C281.004 174.88 275.17 182.521 275.132 191.48V195.545ZM235.947 151.429C235.984 160.388 241.668 167.954 252.283 167.954C262.786 167.954 268.582 160.463 268.545 151.429V147.364C268.582 138.33 262.936 130.763 252.283 130.763C241.894 130.763 235.984 138.33 235.947 147.364V151.429ZM239.335 210H248.783L301.783 132.909H292.335L239.335 210ZM284.957 191.48C284.994 187.49 286.688 183.462 291.431 183.462C296.4 183.462 297.868 187.49 297.83 191.48V195.545C297.868 199.536 296.249 203.488 291.431 203.488C286.613 203.488 284.994 199.498 284.957 195.545V191.48ZM245.847 147.364C245.884 143.411 247.503 139.346 252.283 139.346C257.252 139.346 258.683 143.374 258.645 147.364V151.429C258.683 155.419 257.102 159.371 252.283 159.371C247.465 159.371 245.884 155.419 245.847 151.429V147.364Z" fill="white"/>
</svg>
