<svg width="14" height="10" viewBox="0 0 14 10" fill="none" xmlns="http://www.w3.org/2000/svg">
<path d="M3.75 9.11932C5.67614 9.11932 6.78409 7.48722 6.78409 4.63636C6.78409 1.80682 5.65909 0.153409 3.75 0.153409C1.84091 0.153409 0.715909 1.80682 0.715909 4.63636C0.715909 7.48722 1.82386 9.11932 3.75 9.11932ZM3.75 8.18182C2.48011 8.18182 1.73864 6.90767 1.73864 4.63636C1.73864 2.36932 2.48864 1.07386 3.75 1.07386C5.01136 1.07386 5.76136 2.36932 5.76136 4.63636C5.76136 6.90767 5.01989 8.18182 3.75 8.18182ZM8.15341 9H13.6591V8.0625H9.60227V7.99432L11.5625 5.89773C13.0625 4.29119 13.5057 3.54119 13.5057 2.57386C13.5057 1.22727 12.4148 0.153409 10.8807 0.153409C9.35085 0.153409 8.1875 1.19318 8.1875 2.72727H9.19318C9.19318 1.73438 9.83665 1.07386 10.8466 1.07386C11.7926 1.07386 12.517 1.65341 12.517 2.57386C12.517 3.37926 12.044 3.97585 11.0341 5.07955L8.15341 8.23295V9Z" fill="#646363"/>
</svg>
