<svg width="15" height="10" viewBox="0 0 15 10" fill="none" xmlns="http://www.w3.org/2000/svg">
<path d="M3.75 9.11932C5.67614 9.11932 6.78409 7.48722 6.78409 4.63636C6.78409 1.80682 5.65909 0.153409 3.75 0.153409C1.84091 0.153409 0.715909 1.80682 0.715909 4.63636C0.715909 7.48722 1.82386 9.11932 3.75 9.11932ZM3.75 8.18182C2.48011 8.18182 1.73864 6.90767 1.73864 4.63636C1.73864 2.36932 2.48864 1.07386 3.75 1.07386C5.01136 1.07386 5.76136 2.36932 5.76136 4.63636C5.76136 6.90767 5.01989 8.18182 3.75 8.18182ZM11.1023 9.11932C12.794 9.11932 14.0511 8.05824 14.0511 6.63068C14.0511 5.52273 13.3949 4.71733 12.2955 4.53409V4.46591C13.1776 4.19744 13.7273 3.47301 13.7273 2.48864C13.7273 1.25284 12.7514 0.153409 11.1364 0.153409C9.62784 0.153409 8.375 1.08239 8.32386 2.45455H9.34659C9.38494 1.58523 10.2116 1.07386 11.1193 1.07386C12.0824 1.07386 12.7045 1.65767 12.7045 2.53977C12.7045 3.46023 11.9844 4.05682 10.9489 4.05682H10.25V4.99432H10.9489C12.2741 4.99432 13.0114 5.66761 13.0114 6.63068C13.0114 7.5554 12.206 8.18182 11.0852 8.18182C10.0753 8.18182 9.27415 7.66193 9.21023 6.81818H8.13636C8.20028 8.19034 9.41051 9.11932 11.1023 9.11932Z" fill="#646363"/>
</svg>
