<svg width="15" height="10" viewBox="0 0 15 10" fill="none" xmlns="http://www.w3.org/2000/svg">
<path d="M3.75 9.11932C5.67614 9.11932 6.78409 7.48722 6.78409 4.63636C6.78409 1.80682 5.65909 0.153409 3.75 0.153409C1.84091 0.153409 0.715909 1.80682 0.715909 4.63636C0.715909 7.48722 1.82386 9.11932 3.75 9.11932ZM3.75 8.18182C2.48011 8.18182 1.73864 6.90767 1.73864 4.63636C1.73864 2.36932 2.48864 1.07386 3.75 1.07386C5.01136 1.07386 5.76136 2.36932 5.76136 4.63636C5.76136 6.90767 5.01989 8.18182 3.75 8.18182ZM7.94886 7.21023H12.0568V9H13.0625V7.21023H14.2557V6.27273H13.0625V0.272727H11.7841L7.94886 6.34091V7.21023ZM12.0568 6.27273H9.09091V6.20455L11.9886 1.61932H12.0568V6.27273Z" fill="#646363"/>
</svg>
