<svg width="14" height="10" viewBox="0 0 14 10" fill="none" xmlns="http://www.w3.org/2000/svg">
<path d="M3.75 9.11932C5.67614 9.11932 6.78409 7.48722 6.78409 4.63636C6.78409 1.80682 5.65909 0.153409 3.75 0.153409C1.84091 0.153409 0.715909 1.80682 0.715909 4.63636C0.715909 7.48722 1.82386 9.11932 3.75 9.11932ZM3.75 8.18182C2.48011 8.18182 1.73864 6.90767 1.73864 4.63636C1.73864 2.36932 2.48864 1.07386 3.75 1.07386C5.01136 1.07386 5.76136 2.36932 5.76136 4.63636C5.76136 6.90767 5.01989 8.18182 3.75 8.18182ZM10.8807 9.11932C12.5426 9.11932 13.7614 7.89205 13.7614 6.22159C13.7614 4.52983 12.5852 3.28977 10.983 3.28977C10.3949 3.28977 9.82386 3.49858 9.46591 3.78409H9.41477L9.72159 1.21023H13.3693V0.272727H8.83523L8.30682 4.56818L9.29545 4.6875C9.65767 4.42756 10.2756 4.24006 10.8125 4.24432C11.9247 4.25284 12.7386 5.09659 12.7386 6.23864C12.7386 7.35938 11.9545 8.18182 10.8807 8.18182C9.9858 8.18182 9.27415 7.60653 9.19318 6.81818H8.17045C8.23438 8.14773 9.38068 9.11932 10.8807 9.11932Z" fill="#646363"/>
</svg>
