<?xml version="1.0" standalone="no"?>
<!DOCTYPE svg PUBLIC "-//W3C//DTD SVG 20010904//EN"
 "http://www.w3.org/TR/2001/REC-SVG-20010904/DTD/svg10.dtd">
<svg version="1.0" xmlns="http://www.w3.org/2000/svg"
 width="384.000000pt" height="281.000000pt" viewBox="0 0 384.000000 281.000000"
 preserveAspectRatio="xMidYMid meet">

<g transform="translate(0.000000,281.000000) scale(0.100000,-0.100000)"
fill="#000000" stroke="none">
<path d="M232 2582 c-147 -185 -173 -536 -65 -892 78 -260 274 -593 471 -801
l57 -60 40 21 c59 30 125 26 125 -9 0 -9 -16 -33 -36 -52 -60 -56 -119 -142
-143 -207 -34 -96 -49 -103 -195 -96 -94 5 -134 3 -182 -10 -34 -9 -76 -16
-94 -16 l-33 0 7 -46 c13 -96 107 -213 228 -282 82 -47 221 -90 328 -101 129
-13 146 -8 181 47 59 93 119 295 119 399 l0 36 33 -26 c79 -64 280 -192 365
-234 l92 -45 58 23 c71 28 211 111 320 189 46 33 86 60 90 60 4 0 27 -41 52
-91 45 -91 138 -241 181 -289 21 -24 26 -25 128 -23 217 4 526 83 757 193 143
68 240 129 346 216 222 185 367 454 343 639 -8 69 -17 81 -40 55 -24 -26 -75
-26 -201 2 -79 17 -134 21 -274 22 -164 1 -180 -1 -264 -27 -97 -30 -147 -33
-209 -15 -63 19 -104 69 -167 202 -85 178 -171 287 -352 443 -98 84 -116 111
-104 157 13 54 193 62 300 13 83 -38 188 -147 258 -267 31 -52 61 -113 69
-135 7 -22 16 -44 20 -48 7 -9 71 166 93 258 29 119 38 225 33 373 -5 159 -19
227 -67 326 -34 73 -99 152 -100 122 0 -33 -39 -82 -77 -99 -21 -9 -107 -34
-192 -57 -281 -74 -520 -184 -631 -290 -163 -155 -277 -219 -377 -207 -50 5
-174 63 -213 99 -44 40 -184 153 -215 173 -134 86 -350 173 -590 236 -155 41
-194 62 -221 117 l-21 44 -31 -40z"/>
</g>
</svg>
